<svg clip-rule="evenodd" fill-rule="evenodd" stroke-linejoin="round" stroke-miterlimit="2" viewBox="0 0 235 40" xmlns="http://www.w3.org/2000/svg"><g transform="matrix(.635723 0 0 .635723 -492.921 -323.608)"><g fill-rule="nonzero"><path d="m1099.4 549.4v-12.5h-21.3l-12.5 12.5z" fill="#ff8b00"/><path d="m1123.4 518.4h-26.7l-12.6 12.5h39.3z" fill="#55b2c6"/><path d="m1053.2 561.9 6.4-6.4h21.6v12.5h-28z" fill="#f00"/><path d="m1057.9 543.3h13.8l12.6-12.5h-26.4z" fill="#b4bbbf"/><path d="m1042.8 561.9h10.4l12.4-12.5h-22.8z" fill="#b4bbbf"/><path d="m1096.7 518.4-6.4 6.4h-40.8v-12.5h47.2z" fill="#b4bbbf"/><path d="m828.6 559.7h-19.6l-3.4 8.4h-8.6l18.1-42.4h7.5l18.1 42.4h-8.7zm-2.7-6.7-7.1-17.3-7.1 17.3z" fill="#031c4c"/><path d="m960.1 541.3c2.5-3.7 8.8-4.1 11.4-4.1v7.2c-3.2 0-6.4.1-8.3 1.5s-2.9 3.3-2.9 5.6v16.6h-7.8v-30.9h7.5z" fill="#031c4c"/></g><path d="m975.8 537.2h7.8v30.9h-7.8z" fill="#031c4c"/><path d="m975.8 523.4h7.8v9.2h-7.8z" fill="#031c4c"/><path d="m1022.3 523.4v44.7h-7.5l-.2-4.7c-1.1 1.6-2.5 2.9-4.2 3.9-1.7.9-3.8 1.4-6.2 1.4-2.1 0-4.1-.4-5.8-1.1-1.8-.8-3.4-1.8-4.7-3.2s-2.4-3.1-3.1-5c-.8-1.9-1.1-4.1-1.1-6.5s.4-4.6 1.1-6.6c.8-2 1.8-3.7 3.1-5.1s2.9-2.5 4.7-3.3 3.7-1.2 5.8-1.2c2.4 0 4.4.4 6.1 1.3s3.1 2.1 4.2 3.8v-18.3h7.8zm-16.4 38.6c2.6 0 4.6-.9 6.2-2.6s2.4-4 2.4-6.8-.8-5-2.4-6.8c-1.6-1.7-3.6-2.6-6.2-2.6-2.5 0-4.6.9-6.1 2.6-1.6 1.7-2.4 4-2.4 6.8s.8 5 2.4 6.7c1.6 1.8 3.6 2.7 6.1 2.7" fill="#031c4c" fill-rule="nonzero"/><path d="m885.8 544.2h-19.3v6.7h11c-.3 3.4-1.6 6-3.8 8.1-2.2 2-5 3-8.6 3-2 0-3.9-.4-5.5-1.1-1.7-.7-3.1-1.7-4.3-3.1-1.2-1.3-2.1-2.9-2.8-4.8s-1-3.9-1-6.2.3-4.3 1-6.2c.6-1.9 1.6-3.4 2.8-4.8 1.2-1.3 2.6-2.3 4.3-3.1 1.7-.7 3.5-1.1 5.6-1.1 4.2 0 7.4 1 9.6 3l5.2-5.2c-3.9-3-8.9-4.6-14.8-4.6-3.3 0-6.3.5-9 1.6s-5 2.5-6.9 4.4-3.4 4.2-4.4 6.9-1.5 5.7-1.5 8.9.5 6.2 1.6 8.9 2.5 5 4.4 6.9 4.2 3.4 6.9 4.4c2.7 1.1 5.7 1.6 8.9 1.6s6.1-.5 8.7-1.6 4.8-2.5 6.6-4.4 3.2-4.2 4.2-6.9 1.5-5.7 1.5-8.9v-1.3c-.3-.2-.4-.7-.4-1.1" fill="#031c4c" fill-rule="nonzero"/><path d="m946.8 544.2h-19.3v6.7h11c-.3 3.4-1.6 6-3.8 8.1-2.2 2-5 3-8.6 3-2 0-3.9-.4-5.5-1.1-1.7-.7-3.1-1.7-4.3-3.1-1.2-1.3-2.1-2.9-2.8-4.8s-1-3.9-1-6.2.3-4.3 1-6.2c.6-1.9 1.6-3.4 2.8-4.8 1.2-1.3 2.6-2.3 4.3-3.1 1.7-.7 3.5-1.1 5.6-1.1 4.2 0 7.4 1 9.6 3l5.2-5.2c-3.9-3-8.9-4.6-14.8-4.6-3.3 0-6.3.5-9 1.6s-5 2.5-6.9 4.4-3.4 4.2-4.4 6.9-1.5 5.7-1.5 8.9.5 6.2 1.6 8.9 2.5 5 4.4 6.9 4.2 3.4 6.9 4.4c2.7 1.1 5.7 1.6 8.9 1.6s6.1-.5 8.7-1.6 4.8-2.5 6.6-4.4 3.2-4.2 4.2-6.9 1.5-5.7 1.5-8.9v-1.3c-.3-.2-.4-.7-.4-1.1" fill="#031c4c" fill-rule="nonzero"/></g></svg>