<?xml version="1.0" encoding="UTF-8"?>
<svg width="1049px" height="232px" viewBox="0 0 1049 232" version="1.1" xmlns="http://www.w3.org/2000/svg" xmlns:xlink="http://www.w3.org/1999/xlink">
    <!-- Generator: Sketch 60.1 (88133) - https://sketch.com -->
    <title>logo-light</title>
    <desc>Created with Sketch.</desc>
    <g id="Page-1" stroke="none" stroke-width="1" fill="none" fill-rule="evenodd">
        <g id="og-white">
            <g id="Group-2" transform="translate(28.000000, 31.000000)">
                <path d="M39.7239712,51.3436237 C36.631224,36.362877 35.9675112,24.8727722 37.9666331,16.5293551 C39.1555965,11.5671678 41.3293088,7.51908462 44.6346064,4.59846305 C48.1241394,1.51504777 52.5360327,0.00201216606 57.493257,0.00201216606 C65.6712013,0.00201216606 74.2682602,3.72732143 83.4557246,10.8044264 C87.2031203,13.6910458 91.0924366,17.170411 95.1316515,21.2444746 C95.4531404,20.8310265 95.8165416,20.4410453 96.2214301,20.0806152 C107.64098,9.91497158 117.255245,3.59892716 125.478408,1.16365068 C130.367899,-0.284364005 134.958526,-0.422317978 139.138936,0.983031021 C143.551631,2.46646844 147.06766,5.53294888 149.548314,9.82810912 C153.642288,16.9166735 154.721918,26.2310983 153.195595,37.7320243 C152.573451,42.4199112 151.50985,47.5263831 150.007094,53.0593153 C150.574045,53.1277086 151.142416,53.2532808 151.705041,53.4395297 C166.193932,58.2358678 176.453582,63.3937462 182.665021,69.2882839 C186.360669,72.7953831 188.773972,76.6998434 189.646365,81.0218204 C190.567176,85.5836746 189.669313,90.1593316 187.191548,94.4512967 C183.105211,101.529614 175.591643,107.11221 164.887587,111.534031 C160.589552,113.309539 155.726579,114.917559 150.293259,116.363748 C150.541176,116.92292 150.733521,117.516759 150.862138,118.139758 C153.954886,133.120505 154.618598,144.61061 152.619477,152.954027 C151.430513,157.916214 149.256801,161.964297 145.951503,164.884919 C142.46197,167.968334 138.050077,169.48137 133.092853,169.48137 C124.914908,169.48137 116.31785,165.756061 107.130385,158.678956 C103.343104,155.761613 99.4108655,152.238839 95.3254337,148.108619 C94.9050753,148.765474 94.3889681,149.376011 93.7785699,149.919385 C82.3590198,160.085028 72.744755,166.401073 64.5215915,168.836349 C59.6321009,170.284364 55.0414736,170.422318 50.8610636,169.016969 C46.4483686,167.533532 42.9323404,164.467051 40.4516862,160.171891 C36.3577116,153.083327 35.2780823,143.768902 36.8044053,132.267976 C37.449038,127.410634 38.56762,122.103898 40.1575891,116.339009 C39.5361041,116.276104 38.9120754,116.144816 38.2949591,115.940529 C23.8060684,111.144191 13.5464184,105.986312 7.33497892,100.091775 C3.63933121,96.5846754 1.22602752,92.6802151 0.353635235,88.3582381 C-0.567176333,83.7963839 0.330686581,79.2207269 2.80845236,74.9287618 C6.89478863,67.8504443 14.4083565,62.2678481 25.1124133,57.8460273 C29.5385143,56.0176154 34.5637208,54.366822 40.1939394,52.8874674 C39.9933393,52.3969171 39.8349374,51.8811235 39.7239712,51.3436237 Z" id="Path" fill="#002C4B" fill-rule="nonzero" transform="translate(95.000000, 85.000000) scale(-1, 1) translate(-95.000000, -85.000000) "></path>
                <path d="M76.1109918,91 L89.6216773,114.999606 L80.3968824,115 C78.6058059,115 76.9515387,114.041975 76.0601262,112.488483 L69.9456773,101.831606 L76.1109918,91 Z M118.814677,103.999606 L113.944933,112.488483 C113.053521,114.041975 111.399254,115 109.608177,115 L97.1836773,114.999606 L91,104 L118.814677,103.999606 Z M102.995798,71 L111,84.540954 L103.052984,98 L87.0061086,98 L79,84.3838793 L86.9562003,71 L102.995798,71 Z M124.136677,74.2726062 L128.577138,82.0115174 C129.461464,83.5526583 129.461464,85.4473417 128.577138,86.9884826 L122.257677,97.9996062 L110,98 L124.136677,74.2726062 Z M80,72 L66.1336773,95.1896062 L61.4279211,86.9884826 C60.543596,85.4473417 60.543596,83.5526583 61.4279211,82.0115174 L67.1716773,71.9996062 L80,72 Z M109.608177,54 C111.399254,54 113.053521,54.958025 113.944933,56.5115174 L120.835677,68.5206062 L114.929178,79 L100.820677,53.9996062 L109.608177,54 Z M93.7696773,53.9996062 L100,65 L71.1886773,64.9996062 L76.0601262,56.5115174 C76.9515387,54.958025 78.6058059,54 80.3968824,54 L93.7696773,53.9996062 Z" id="Polygon-3" fill="#FFD94C"></path>
                <path d="M54.8601729,98.3577578 C56.1715224,97.6082856 57.8360246,98.0746014 58.5779424,99.3993034 L58.5779424,99.3993034 L59.0525843,100.24352 C62.8563392,106.982993 66.8190116,113.380176 70.9406016,119.435068 C75.8078808,126.585427 81.28184,133.82411 87.3624792,141.151115 C88.3168778,142.30114 88.1849437,144.011176 87.065686,144.997937 L87.065686,144.997937 L86.4542085,145.534625 C66.3465389,163.103314 53.2778188,166.612552 47.2480482,156.062341 C41.3500652,145.742717 43.4844915,126.982888 53.6513274,99.7828526 C53.876818,99.1795821 54.3045861,98.675291 54.8601729,98.3577578 Z M140.534177,119.041504 C141.986131,118.785177 143.375496,119.742138 143.65963,121.194242 L143.65963,121.194242 L143.812815,121.986376 C148.782365,147.995459 145.283348,161 133.315764,161 C121.609745,161 106.708724,149.909007 88.6127018,127.727022 C88.2113495,127.235047 87.9945723,126.617371 88,125.981509 C88.013158,124.480686 89.2357854,123.274651 90.730918,123.287756 L90.730918,123.287756 L91.6846544,123.294531 C99.3056979,123.335994 106.714387,123.071591 113.910723,122.501323 C122.409039,121.82788 131.283523,120.674607 140.534177,119.041504 Z M147.408726,63.8119663 C147.932139,62.4026903 149.508386,61.6634537 150.954581,62.149012 L150.954581,62.149012 L151.742552,62.4154854 C177.583763,71.217922 187.402356,80.8916805 181.198332,91.4367609 C175.129904,101.751366 157.484347,109.260339 128.26166,113.963678 C127.613529,114.067994 126.948643,113.945969 126.382735,113.618843 C125.047025,112.846729 124.602046,111.158214 125.388848,109.847438 L125.388848,109.847438 L125.889328,109.0105 C129.877183,102.31633 133.481358,95.6542621 136.701854,89.0242957 C140.50501,81.1948179 144.073967,72.7907081 147.408726,63.8119663 Z M61.7383398,56.0363218 C62.3864708,55.9320063 63.0513565,56.0540315 63.6172646,56.3811573 C64.9529754,57.153271 65.3979538,58.8417862 64.6111517,60.1525615 L64.6111517,60.1525615 L64.1106718,60.9895001 C60.1228168,67.6836699 56.5186416,74.3457379 53.2981462,80.9757043 C49.49499,88.8051821 45.9260328,97.2092919 42.5912744,106.188034 C42.0678608,107.59731 40.4916142,108.336546 39.045419,107.850988 L39.045419,107.850988 L38.2574475,107.584515 C12.4162372,98.782078 2.59764398,89.1083195 8.80166786,78.5632391 C14.8700957,68.2486335 32.515653,60.7396611 61.7383398,56.0363218 Z M103.545792,24.4653746 C123.653461,6.89668641 136.722181,3.38744778 142.751952,13.9376587 C148.649935,24.2572826 146.515508,43.0171122 136.348673,70.2171474 C136.123182,70.8204179 135.695414,71.324709 135.139827,71.6422422 C133.828478,72.3917144 132.163975,71.9253986 131.422058,70.6006966 L131.422058,70.6006966 L130.947416,69.7564798 C127.143661,63.0170065 123.180988,56.6198239 119.059398,50.564932 C114.192119,43.4145727 108.71816,36.1758903 102.637521,28.8488847 C101.683122,27.6988602 101.815056,25.9888243 102.934314,25.0020629 L102.934314,25.0020629 Z M57.6842361,8 C69.3902551,8 84.2912758,19.0909926 102.387298,41.2729777 C102.788651,41.7649527 103.005428,42.3826288 103,43.0184911 C102.986842,44.5193144 101.764215,45.7253489 100.269082,45.7122445 L100.269082,45.7122445 L99.3153456,45.7054689 C91.6943021,45.6640063 84.2856126,45.9284091 77.0892772,46.4986773 C68.5909612,47.17212 59.7164767,48.325393 50.4658235,49.9584962 C49.0138691,50.2148231 47.6245044,49.2578618 47.3403697,47.805758 L47.3403697,47.805758 L47.1871846,47.0136235 C42.2176347,21.0045412 45.7166519,8 57.6842361,8 Z" id="Combined-Shape" fill="#FF4154"></path>
            </g>
            <path d="M259.694943,160 L259.694943,128.137 L277.109943,128.137 L293.492943,160 L315.422943,160 L298.523943,125.17 C303.597943,123.106 307.596943,119.537 310.520943,114.463 C313.444943,109.389 314.906943,104.186 314.906943,98.854 C314.906943,90.254 312.477443,83.245 307.618443,77.827 C302.759443,72.409 294.911943,69.7 284.075943,69.7 L284.075943,69.7 L240.086943,69.7 L240.086943,160 L259.694943,160 Z M284.333943,109.561 L259.694943,109.561 L259.694943,88.276 L284.333943,88.276 C287.945943,88.276 290.547443,89.2865 292.138443,91.3075 C293.729443,93.3285 294.524943,95.844 294.524943,98.854 C294.524943,105.992 291.127943,109.561 284.333943,109.561 L284.333943,109.561 Z M344.774094,161.548 C355.266094,161.548 363.823094,157.549 370.445094,149.551 L370.445094,149.551 L359.609094,138.715 C355.739094,143.359 350.794094,145.681 344.774094,145.681 C341.076094,145.681 338.023094,144.6705 335.615094,142.6495 C333.207094,140.6285 331.917094,137.554 331.745094,133.426 L331.745094,133.426 L373.928094,133.426 C374.272094,131.19 374.444094,127.965 374.444094,123.751 C374.444094,113.603 371.692094,105.863 366.188094,100.531 C360.684094,95.199 353.546094,92.533 344.774094,92.533 C335.142094,92.533 327.509594,95.629 321.876594,101.821 C316.243594,108.013 313.427094,116.398 313.427094,126.976 C313.427094,137.812 316.222094,146.283 321.812094,152.389 C327.402094,158.495 335.056094,161.548 344.774094,161.548 Z M356.513094,119.365 L331.874094,119.365 C332.304094,115.925 333.594094,113.2375 335.744094,111.3025 C337.894094,109.3675 340.646094,108.4 344.000094,108.4 C351.396094,108.4 355.567094,112.055 356.513094,119.365 L356.513094,119.365 Z M401.086245,161.548 C408.052245,161.548 413.513245,159.398 417.469245,155.098 L417.469245,155.098 L417.469245,160 L436.045245,160 L436.045245,118.333 C436.045245,101.133 426.714245,92.533 408.052245,92.533 C397.302245,92.533 387.885245,95.285 379.801245,100.789 L379.801245,100.789 L385.606245,115.108 C392.572245,110.464 399.624245,108.142 406.762245,108.142 C410.116245,108.142 412.739245,108.9375 414.631245,110.5285 C416.523245,112.1195 417.469245,114.42 417.469245,117.43 L417.469245,117.43 L417.469245,121.042 C414.029245,119.494 409.213245,118.72 403.021245,118.72 C395.883245,118.72 389.648245,120.5475 384.316245,124.2025 C378.984245,127.8575 376.318245,133.082 376.318245,139.876 C376.318245,146.842 378.618745,152.1955 383.219745,155.9365 C387.820745,159.6775 393.776245,161.548 401.086245,161.548 Z M404.698245,145.81 C397.990245,145.81 394.636245,143.875 394.636245,140.005 C394.636245,135.791 398.506245,133.684 406.246245,133.684 C410.288245,133.684 414.029245,134.2 417.469245,135.232 L417.469245,135.232 L417.469245,141.166 C413.599245,144.262 409.342245,145.81 404.698245,145.81 Z M471.975396,161.548 C486.939396,161.548 496.614396,154.109 501.000396,139.231 L501.000396,139.231 L483.069396,134.071 C481.091396,140.435 477.393396,143.617 471.975396,143.617 C468.535396,143.617 465.697396,142.0905 463.461396,139.0375 C461.225396,135.9845 460.107396,132.007 460.107396,127.105 C460.107396,122.203 461.246896,118.204 463.525896,115.108 C465.804896,112.012 468.707396,110.464 472.233396,110.464 C477.307396,110.464 480.919396,113.302 483.069396,118.978 L483.069396,118.978 L500.871396,113.173 C496.571396,99.413 486.939396,92.533 471.975396,92.533 C462.687396,92.533 455.226896,95.6505 449.593896,101.8855 C443.960896,108.1205 441.144396,116.527 441.144396,127.105 C441.144396,137.855 443.939396,146.283 449.529396,152.389 C455.119396,158.495 462.601396,161.548 471.975396,161.548 Z M526.868547,161.548 C532.802547,161.548 537.790547,160.559 541.832547,158.581 L541.832547,158.581 L543.896547,142.843 C540.112547,144.563 536.328547,145.423 532.544547,145.423 C531.512547,145.423 530.631047,145.1005 529.900047,144.4555 C529.169047,143.8105 528.803547,142.886 528.803547,141.682 L528.803547,141.682 L528.803547,110.464 L543.122547,110.464 L543.122547,94.081 L528.803547,94.081 L528.803547,66.862 L510.227547,75.763 L510.227547,94.081 L501.197547,94.081 L501.197547,110.464 L510.227547,110.464 L510.227547,143.488 C510.227547,155.528 515.774547,161.548 526.868547,161.548 Z M635.493849,160 L635.493849,141.037 L592.149849,141.037 L592.149849,69.7 L572.541849,69.7 L572.541849,160 L635.493849,160 Z M663.684,161.548 C673.058,161.548 680.454,158.495 685.872,152.389 C691.29,146.283 693.999,137.855 693.999,127.105 C693.999,116.441 691.2685,108.013 685.8075,101.821 C680.3465,95.629 672.972,92.533 663.684,92.533 C654.31,92.533 646.871,95.629 641.367,101.821 C635.863,108.013 633.111,116.441 633.111,127.105 C633.111,137.855 635.8415,146.283 641.3025,152.389 C646.7635,158.495 654.224,161.548 663.684,161.548 Z M663.684,143.488 C660.072,143.488 657.191,142.0475 655.041,139.1665 C652.891,136.2855 651.816,132.265 651.816,127.105 C651.816,121.945 652.891,117.903 655.041,114.979 C657.191,112.055 660.072,110.593 663.684,110.593 C667.382,110.593 670.2415,112.055 672.2625,114.979 C674.2835,117.903 675.294,121.945 675.294,127.105 C675.294,132.265 674.2835,136.2855 672.2625,139.1665 C670.2415,142.0475 667.382,143.488 663.684,143.488 Z M727.994151,161.548 C742.958151,161.548 752.633151,154.109 757.019151,139.231 L757.019151,139.231 L739.088151,134.071 C737.110151,140.435 733.412151,143.617 727.994151,143.617 C724.554151,143.617 721.716151,142.0905 719.480151,139.0375 C717.244151,135.9845 716.126151,132.007 716.126151,127.105 C716.126151,122.203 717.265651,118.204 719.544651,115.108 C721.823651,112.012 724.726151,110.464 728.252151,110.464 C733.326151,110.464 736.938151,113.302 739.088151,118.978 L739.088151,118.978 L756.890151,113.173 C752.590151,99.413 742.958151,92.533 727.994151,92.533 C718.706151,92.533 711.245651,95.6505 705.612651,101.8855 C699.979651,108.1205 697.163151,116.527 697.163151,127.105 C697.163151,137.855 699.958151,146.283 705.548151,152.389 C711.138151,158.495 718.620151,161.548 727.994151,161.548 Z M783.919302,161.548 C790.885302,161.548 796.346302,159.398 800.302302,155.098 L800.302302,155.098 L800.302302,160 L818.878302,160 L818.878302,118.333 C818.878302,101.133 809.547302,92.533 790.885302,92.533 C780.135302,92.533 770.718302,95.285 762.634302,100.789 L762.634302,100.789 L768.439302,115.108 C775.405302,110.464 782.457302,108.142 789.595302,108.142 C792.949302,108.142 795.572302,108.9375 797.464302,110.5285 C799.356302,112.1195 800.302302,114.42 800.302302,117.43 L800.302302,117.43 L800.302302,121.042 C796.862302,119.494 792.046302,118.72 785.854302,118.72 C778.716302,118.72 772.481302,120.5475 767.149302,124.2025 C761.817302,127.8575 759.151302,133.082 759.151302,139.876 C759.151302,146.842 761.451802,152.1955 766.052802,155.9365 C770.653802,159.6775 776.609302,161.548 783.919302,161.548 Z M787.531302,145.81 C780.823302,145.81 777.469302,143.875 777.469302,140.005 C777.469302,135.791 781.339302,133.684 789.079302,133.684 C793.121302,133.684 796.862302,134.2 800.302302,135.232 L800.302302,135.232 L800.302302,141.166 C796.432302,144.262 792.175302,145.81 787.531302,145.81 Z M847.068453,161.548 C853.002453,161.548 857.990453,160.559 862.032453,158.581 L862.032453,158.581 L864.096453,142.843 C860.312453,144.563 856.528453,145.423 852.744453,145.423 C851.712453,145.423 850.830953,145.1005 850.099953,144.4555 C849.368953,143.8105 849.003453,142.886 849.003453,141.682 L849.003453,141.682 L849.003453,110.464 L863.322453,110.464 L863.322453,94.081 L849.003453,94.081 L849.003453,66.862 L830.427453,75.763 L830.427453,94.081 L821.397453,94.081 L821.397453,110.464 L830.427453,110.464 L830.427453,143.488 C830.427453,155.528 835.974453,161.548 847.068453,161.548 Z M878.741604,87.76 C881.751604,87.76 884.288604,86.7065 886.352604,84.5995 C888.416604,82.4925 889.448604,79.977 889.448604,77.053 C889.448604,74.043 888.416604,71.5275 886.352604,69.5065 C884.288604,67.4855 881.751604,66.475 878.741604,66.475 C875.731604,66.475 873.173104,67.507 871.066104,69.571 C868.959104,71.635 867.905604,74.129 867.905604,77.053 C867.905604,79.977 868.980604,82.4925 871.130604,84.5995 C873.280604,86.7065 875.817604,87.76 878.741604,87.76 Z M888.029604,160 L888.029604,94.081 L869.324604,94.081 L869.324604,160 L888.029604,160 Z M925.120755,161.548 C934.494755,161.548 941.890755,158.495 947.308755,152.389 C952.726755,146.283 955.435755,137.855 955.435755,127.105 C955.435755,116.441 952.705255,108.013 947.244255,101.821 C941.783255,95.629 934.408755,92.533 925.120755,92.533 C915.746755,92.533 908.307755,95.629 902.803755,101.821 C897.299755,108.013 894.547755,116.441 894.547755,127.105 C894.547755,137.855 897.278255,146.283 902.739255,152.389 C908.200255,158.495 915.660755,161.548 925.120755,161.548 Z M925.120755,143.488 C921.508755,143.488 918.627755,142.0475 916.477755,139.1665 C914.327755,136.2855 913.252755,132.265 913.252755,127.105 C913.252755,121.945 914.327755,117.903 916.477755,114.979 C918.627755,112.055 921.508755,110.593 925.120755,110.593 C928.818755,110.593 931.678255,112.055 933.699255,114.979 C935.720255,117.903 936.730755,121.945 936.730755,127.105 C936.730755,132.265 935.720255,136.2855 933.699255,139.1665 C931.678255,142.0475 928.818755,143.488 925.120755,143.488 Z M980.529906,160 L980.529906,125.428 C980.529906,120.354 981.454406,116.613 983.303406,114.205 C985.152406,111.797 988.097906,110.593 992.139906,110.593 C995.923906,110.593 998.611406,111.7755 1000.20241,114.1405 C1001.79341,116.5055 1002.58891,120.354 1002.58891,125.686 L1002.58891,125.686 L1002.58891,160 L1021.29391,160 L1021.29391,117.172 C1021.29391,108.486 1019.01491,102.208 1014.45691,98.338 C1009.89891,94.468 1004.56691,92.533 998.460906,92.533 C990.720906,92.533 984.743906,95.07 980.529906,100.144 L980.529906,100.144 L980.529906,94.081 L961.824906,94.081 L961.824906,160 L980.529906,160 Z" id="ReactLocation" fill="#002C4B" fill-rule="nonzero"></path>
        </g>
    </g>
</svg>