<?xml version="1.0" encoding="UTF-8"?>
<svg width="883px" height="190px" viewBox="0 0 883 190" version="1.1" xmlns="http://www.w3.org/2000/svg" xmlns:xlink="http://www.w3.org/1999/xlink">
    <!-- Generator: Sketch 60.1 (88133) - https://sketch.com -->
    <title>logo-light</title>
    <desc>Created with Sketch.</desc>
    <g id="Page-1" stroke="none" stroke-width="1" fill="none" fill-rule="evenodd">
        <g id="og-light">
            <path d="M262.608,141.138 L262.608,109.275 L280.023,109.275 L296.406,141.138 L318.336,141.138 L301.437,106.308 C306.511,104.244 310.51,100.675 313.434,95.601 C316.358,90.527 317.82,85.324 317.82,79.992 C317.82,71.392 315.3905,64.383 310.5315,58.965 C305.6725,53.547 297.825,50.838 286.989,50.838 L286.989,50.838 L243,50.838 L243,141.138 L262.608,141.138 Z M287.247,90.699 L262.608,90.699 L262.608,69.414 L287.247,69.414 C290.859,69.414 293.4605,70.4245 295.0515,72.4455 C296.6425,74.4665 297.438,76.982 297.438,79.992 C297.438,87.13 294.041,90.699 287.247,90.699 L287.247,90.699 Z M347.687151,142.686 C358.179151,142.686 366.736151,138.687 373.358151,130.689 L373.358151,130.689 L362.522151,119.853 C358.652151,124.497 353.707151,126.819 347.687151,126.819 C343.989151,126.819 340.936151,125.8085 338.528151,123.7875 C336.120151,121.7665 334.830151,118.692 334.658151,114.564 L334.658151,114.564 L376.841151,114.564 C377.185151,112.328 377.357151,109.103 377.357151,104.889 C377.357151,94.741 374.605151,87.001 369.101151,81.669 C363.597151,76.337 356.459151,73.671 347.687151,73.671 C338.055151,73.671 330.422651,76.767 324.789651,82.959 C319.156651,89.151 316.340151,97.536 316.340151,108.114 C316.340151,118.95 319.135151,127.421 324.725151,133.527 C330.315151,139.633 337.969151,142.686 347.687151,142.686 Z M359.426151,100.503 L334.787151,100.503 C335.217151,97.063 336.507151,94.3755 338.657151,92.4405 C340.807151,90.5055 343.559151,89.538 346.913151,89.538 C354.309151,89.538 358.480151,93.193 359.426151,100.503 L359.426151,100.503 Z M403.999302,142.686 C410.965302,142.686 416.426302,140.536 420.382302,136.236 L420.382302,136.236 L420.382302,141.138 L438.958302,141.138 L438.958302,99.471 C438.958302,82.271 429.627302,73.671 410.965302,73.671 C400.215302,73.671 390.798302,76.423 382.714302,81.927 L382.714302,81.927 L388.519302,96.246 C395.485302,91.602 402.537302,89.28 409.675302,89.28 C413.029302,89.28 415.652302,90.0755 417.544302,91.6665 C419.436302,93.2575 420.382302,95.558 420.382302,98.568 L420.382302,98.568 L420.382302,102.18 C416.942302,100.632 412.126302,99.858 405.934302,99.858 C398.796302,99.858 392.561302,101.6855 387.229302,105.3405 C381.897302,108.9955 379.231302,114.22 379.231302,121.014 C379.231302,127.98 381.531802,133.3335 386.132802,137.0745 C390.733802,140.8155 396.689302,142.686 403.999302,142.686 Z M407.611302,126.948 C400.903302,126.948 397.549302,125.013 397.549302,121.143 C397.549302,116.929 401.419302,114.822 409.159302,114.822 C413.201302,114.822 416.942302,115.338 420.382302,116.37 L420.382302,116.37 L420.382302,122.304 C416.512302,125.4 412.255302,126.948 407.611302,126.948 Z M474.888453,142.686 C489.852453,142.686 499.527453,135.247 503.913453,120.369 L503.913453,120.369 L485.982453,115.209 C484.004453,121.573 480.306453,124.755 474.888453,124.755 C471.448453,124.755 468.610453,123.2285 466.374453,120.1755 C464.138453,117.1225 463.020453,113.145 463.020453,108.243 C463.020453,103.341 464.159953,99.342 466.438953,96.246 C468.717953,93.15 471.620453,91.602 475.146453,91.602 C480.220453,91.602 483.832453,94.44 485.982453,100.116 L485.982453,100.116 L503.784453,94.311 C499.484453,80.551 489.852453,73.671 474.888453,73.671 C465.600453,73.671 458.139953,76.7885 452.506953,83.0235 C446.873953,89.2585 444.057453,97.665 444.057453,108.243 C444.057453,118.993 446.852453,127.421 452.442453,133.527 C458.032453,139.633 465.514453,142.686 474.888453,142.686 Z M529.781604,142.686 C535.715604,142.686 540.703604,141.697 544.745604,139.719 L544.745604,139.719 L546.809604,123.981 C543.025604,125.701 539.241604,126.561 535.457604,126.561 C534.425604,126.561 533.544104,126.2385 532.813104,125.5935 C532.082104,124.9485 531.716604,124.024 531.716604,122.82 L531.716604,122.82 L531.716604,91.602 L546.035604,91.602 L546.035604,75.219 L531.716604,75.219 L531.716604,48 L513.140604,56.901 L513.140604,75.219 L504.110604,75.219 L504.110604,91.602 L513.140604,91.602 L513.140604,124.626 C513.140604,136.666 518.687604,142.686 529.781604,142.686 Z M618.153906,141.138 L618.153906,69.672 L644.082906,69.672 L644.082906,50.838 L572.616906,50.838 L572.616906,69.672 L598.545906,69.672 L598.545906,141.138 L618.153906,141.138 Z M660.276057,142.686 C667.242057,142.686 672.703057,140.536 676.659057,136.236 L676.659057,136.236 L676.659057,141.138 L695.235057,141.138 L695.235057,99.471 C695.235057,82.271 685.904057,73.671 667.242057,73.671 C656.492057,73.671 647.075057,76.423 638.991057,81.927 L638.991057,81.927 L644.796057,96.246 C651.762057,91.602 658.814057,89.28 665.952057,89.28 C669.306057,89.28 671.929057,90.0755 673.821057,91.6665 C675.713057,93.2575 676.659057,95.558 676.659057,98.568 L676.659057,98.568 L676.659057,102.18 C673.219057,100.632 668.403057,99.858 662.211057,99.858 C655.073057,99.858 648.838057,101.6855 643.506057,105.3405 C638.174057,108.9955 635.508057,114.22 635.508057,121.014 C635.508057,127.98 637.808557,133.3335 642.409557,137.0745 C647.010557,140.8155 652.966057,142.686 660.276057,142.686 Z M663.888057,126.948 C657.180057,126.948 653.826057,125.013 653.826057,121.143 C653.826057,116.929 657.696057,114.822 665.436057,114.822 C669.478057,114.822 673.219057,115.338 676.659057,116.37 L676.659057,116.37 L676.659057,122.304 C672.789057,125.4 668.532057,126.948 663.888057,126.948 Z M734.390208,142.686 C743.162208,142.686 750.085208,139.676 755.159208,133.656 C760.233208,127.636 762.770208,119.122 762.770208,108.114 C762.770208,97.708 760.190208,89.366 755.030208,83.088 C749.870208,76.81 743.334208,73.671 735.422208,73.671 C729.660208,73.671 725.274208,75.778 722.264208,79.992 L722.264208,79.992 L722.264208,48 L703.559208,56.385 L703.559208,141.138 L722.264208,141.138 L722.264208,136.107 C724.844208,140.493 728.886208,142.686 734.390208,142.686 Z M732.326208,124.626 C727.768208,124.626 724.414208,123.25 722.264208,120.498 L722.264208,120.498 L722.264208,95.988 C724.586208,93.15 727.940208,91.731 732.326208,91.731 C736.110208,91.731 739.012708,93.15 741.033708,95.988 C743.054708,98.826 744.065208,102.868 744.065208,108.114 C744.065208,113.274 743.054708,117.316 741.033708,120.24 C739.012708,123.164 736.110208,124.626 732.326208,124.626 Z M788.509358,141.138 L788.509358,48 L769.804358,56.772 L769.804358,141.138 L788.509358,141.138 Z M826.890509,142.686 C837.382509,142.686 845.939509,138.687 852.561509,130.689 L852.561509,130.689 L841.725509,119.853 C837.855509,124.497 832.910509,126.819 826.890509,126.819 C823.192509,126.819 820.139509,125.8085 817.731509,123.7875 C815.323509,121.7665 814.033509,118.692 813.861509,114.564 L813.861509,114.564 L856.044509,114.564 C856.388509,112.328 856.560509,109.103 856.560509,104.889 C856.560509,94.741 853.808509,87.001 848.304509,81.669 C842.800509,76.337 835.662509,73.671 826.890509,73.671 C817.258509,73.671 809.626009,76.767 803.993009,82.959 C798.360009,89.151 795.543509,97.536 795.543509,108.114 C795.543509,118.95 798.338509,127.421 803.928509,133.527 C809.518509,139.633 817.172509,142.686 826.890509,142.686 Z M838.629509,100.503 L813.990509,100.503 C814.420509,97.063 815.710509,94.3755 817.860509,92.4405 C820.010509,90.5055 822.762509,89.538 826.116509,89.538 C833.512509,89.538 837.683509,93.193 838.629509,100.503 L838.629509,100.503 Z" id="ReactTable" fill="#002C4B" fill-rule="nonzero"></path>
            <g id="Group" transform="translate(27.000000, 10.000000)">
                <path d="M39.7239712,51.3436237 C36.631224,36.362877 35.9675112,24.8727722 37.9666331,16.5293551 C39.1555965,11.5671678 41.3293088,7.51908462 44.6346064,4.59846305 C48.1241394,1.51504777 52.5360327,0.00201216606 57.493257,0.00201216606 C65.6712013,0.00201216606 74.2682602,3.72732143 83.4557246,10.8044264 C87.2031203,13.6910458 91.0924366,17.170411 95.1316515,21.2444746 C95.4531404,20.8310265 95.8165416,20.4410453 96.2214301,20.0806152 C107.64098,9.91497158 117.255245,3.59892716 125.478408,1.16365068 C130.367899,-0.284364005 134.958526,-0.422317978 139.138936,0.983031021 C143.551631,2.46646844 147.06766,5.53294888 149.548314,9.82810912 C153.642288,16.9166735 154.721918,26.2310983 153.195595,37.7320243 C152.573451,42.4199112 151.50985,47.5263831 150.007094,53.0593153 C150.574045,53.1277086 151.142416,53.2532808 151.705041,53.4395297 C166.193932,58.2358678 176.453582,63.3937462 182.665021,69.2882839 C186.360669,72.7953831 188.773972,76.6998434 189.646365,81.0218204 C190.567176,85.5836746 189.669313,90.1593316 187.191548,94.4512967 C183.105211,101.529614 175.591643,107.11221 164.887587,111.534031 C160.589552,113.309539 155.726579,114.917559 150.293259,116.363748 C150.541176,116.92292 150.733521,117.516759 150.862138,118.139758 C153.954886,133.120505 154.618598,144.61061 152.619477,152.954027 C151.430513,157.916214 149.256801,161.964297 145.951503,164.884919 C142.46197,167.968334 138.050077,169.48137 133.092853,169.48137 C124.914908,169.48137 116.31785,165.756061 107.130385,158.678956 C103.343104,155.761613 99.4108655,152.238839 95.3254337,148.108619 C94.9050753,148.765474 94.3889681,149.376011 93.7785699,149.919385 C82.3590198,160.085028 72.744755,166.401073 64.5215915,168.836349 C59.6321009,170.284364 55.0414736,170.422318 50.8610636,169.016969 C46.4483686,167.533532 42.9323404,164.467051 40.4516862,160.171891 C36.3577116,153.083327 35.2780823,143.768902 36.8044053,132.267976 C37.449038,127.410634 38.56762,122.103898 40.1575891,116.339009 C39.5361041,116.276104 38.9120754,116.144816 38.2949591,115.940529 C23.8060684,111.144191 13.5464184,105.986312 7.33497892,100.091775 C3.63933121,96.5846754 1.22602752,92.6802151 0.353635235,88.3582381 C-0.567176333,83.7963839 0.330686581,79.2207269 2.80845236,74.9287618 C6.89478863,67.8504443 14.4083565,62.2678481 25.1124133,57.8460273 C29.5385143,56.0176154 34.5637208,54.366822 40.1939394,52.8874674 C39.9933393,52.3969171 39.8349374,51.8811235 39.7239712,51.3436237 Z" id="Path" fill="#002C4B" fill-rule="nonzero" transform="translate(95.000000, 85.000000) scale(-1, 1) translate(-95.000000, -85.000000) "></path>
                <path d="M91.735,110 L91.735,116 L80.6322051,116 C78.8411286,116 77.1868614,115.041975 76.2954489,113.488483 L74.294,110 L91.735,110 Z M116.181,110 L114.180256,113.488483 C113.288844,115.041975 111.634576,116 109.8435,116 L98.735,116 L98.735,110 L116.181,110 Z M91.735,96 L91.735,103 L70.277,103 L66.26,96 L91.735,96 Z M124.215,96 L120.198,103 L98.735,103 L98.735,96 L124.215,96 Z M91.735,82 L91.735,89 L62.244,89 L61.6632438,87.9884826 C60.7789187,86.4473417 60.7789187,84.5526583 61.6632438,83.0115174 L62.243,82 L91.735,82 Z M128.232,82 L128.812461,83.0115174 C129.696786,84.5526583 129.696786,86.4473417 128.812461,87.9884826 L128.231,89 L98.735,89 L98.735,82 L128.232,82 Z M91.735,68 L91.735,75 L66.26,75 L70.277,68 L91.735,68 Z M120.198,68 L124.215,75 L98.735,75 L98.735,68 L120.198,68 Z M91.735,55 L91.735,61 L74.293,61 L76.2954489,57.5115174 C77.1868614,55.958025 78.8411286,55 80.6322051,55 L91.735,55 Z M109.8435,55 C111.634576,55 113.288844,55.958025 114.180256,57.5115174 L116.182,61 L98.735,61 L98.735,55 L109.8435,55 Z" id="Polygon-2" fill="#FFD94C"></path>
                <path d="M54.8601729,98.3577578 C56.1715224,97.6082856 57.8360246,98.0746014 58.5779424,99.3993034 L58.5779424,99.3993034 L59.0525843,100.24352 C62.8563392,106.982993 66.8190116,113.380176 70.9406016,119.435068 C75.8078808,126.585427 81.28184,133.82411 87.3624792,141.151115 C88.3168778,142.30114 88.1849437,144.011176 87.065686,144.997937 L87.065686,144.997937 L86.4542085,145.534625 C66.3465389,163.103314 53.2778188,166.612552 47.2480482,156.062341 C41.3500652,145.742717 43.4844915,126.982888 53.6513274,99.7828526 C53.876818,99.1795821 54.3045861,98.675291 54.8601729,98.3577578 Z M140.534177,119.041504 C141.986131,118.785177 143.375496,119.742138 143.65963,121.194242 L143.65963,121.194242 L143.812815,121.986376 C148.782365,147.995459 145.283348,161 133.315764,161 C121.609745,161 106.708724,149.909007 88.6127018,127.727022 C88.2113495,127.235047 87.9945723,126.617371 88,125.981509 C88.013158,124.480686 89.2357854,123.274651 90.730918,123.287756 L90.730918,123.287756 L91.6846544,123.294531 C99.3056979,123.335994 106.714387,123.071591 113.910723,122.501323 C122.409039,121.82788 131.283523,120.674607 140.534177,119.041504 Z M147.408726,63.8119663 C147.932139,62.4026903 149.508386,61.6634537 150.954581,62.149012 L150.954581,62.149012 L151.742552,62.4154854 C177.583763,71.217922 187.402356,80.8916805 181.198332,91.4367609 C175.129904,101.751366 157.484347,109.260339 128.26166,113.963678 C127.613529,114.067994 126.948643,113.945969 126.382735,113.618843 C125.047025,112.846729 124.602046,111.158214 125.388848,109.847438 L125.388848,109.847438 L125.889328,109.0105 C129.877183,102.31633 133.481358,95.6542621 136.701854,89.0242957 C140.50501,81.1948179 144.073967,72.7907081 147.408726,63.8119663 Z M61.7383398,56.0363218 C62.3864708,55.9320063 63.0513565,56.0540315 63.6172646,56.3811573 C64.9529754,57.153271 65.3979538,58.8417862 64.6111517,60.1525615 L64.6111517,60.1525615 L64.1106718,60.9895001 C60.1228168,67.6836699 56.5186416,74.3457379 53.2981462,80.9757043 C49.49499,88.8051821 45.9260328,97.2092919 42.5912744,106.188034 C42.0678608,107.59731 40.4916142,108.336546 39.045419,107.850988 L39.045419,107.850988 L38.2574475,107.584515 C12.4162372,98.782078 2.59764398,89.1083195 8.80166786,78.5632391 C14.8700957,68.2486335 32.515653,60.7396611 61.7383398,56.0363218 Z M103.545792,24.4653746 C123.653461,6.89668641 136.722181,3.38744778 142.751952,13.9376587 C148.649935,24.2572826 146.515508,43.0171122 136.348673,70.2171474 C136.123182,70.8204179 135.695414,71.324709 135.139827,71.6422422 C133.828478,72.3917144 132.163975,71.9253986 131.422058,70.6006966 L131.422058,70.6006966 L130.947416,69.7564798 C127.143661,63.0170065 123.180988,56.6198239 119.059398,50.564932 C114.192119,43.4145727 108.71816,36.1758903 102.637521,28.8488847 C101.683122,27.6988602 101.815056,25.9888243 102.934314,25.0020629 L102.934314,25.0020629 Z M57.6842361,8 C69.3902551,8 84.2912758,19.0909926 102.387298,41.2729777 C102.788651,41.7649527 103.005428,42.3826288 103,43.0184911 C102.986842,44.5193144 101.764215,45.7253489 100.269082,45.7122445 L100.269082,45.7122445 L99.3153456,45.7054689 C91.6943021,45.6640063 84.2856126,45.9284091 77.0892772,46.4986773 C68.5909612,47.17212 59.7164767,48.325393 50.4658235,49.9584962 C49.0138691,50.2148231 47.6245044,49.2578618 47.3403697,47.805758 L47.3403697,47.805758 L47.1871846,47.0136235 C42.2176347,21.0045412 45.7166519,8 57.6842361,8 Z" id="Combined-Shape" fill="#FF4154"></path>
            </g>
        </g>
    </g>
</svg>