<?xml version="1.0" encoding="UTF-8"?>
<svg width="919px" height="190px" viewBox="0 0 919 190" version="1.1" xmlns="http://www.w3.org/2000/svg" xmlns:xlink="http://www.w3.org/1999/xlink">
    <!-- Generator: Sketch 60.1 (88133) - https://sketch.com -->
    <title>logo-light</title>
    <desc>Created with Sketch.</desc>
    <g id="Page-1" stroke="none" stroke-width="1" fill="none" fill-rule="evenodd">
        <g id="og-light">
            <path d="M289.608,141.138 L289.608,109.275 L307.023,109.275 L323.406,141.138 L345.336,141.138 L328.437,106.308 C333.511,104.244 337.51,100.675 340.434,95.601 C343.358,90.527 344.82,85.324 344.82,79.992 C344.82,71.392 342.3905,64.383 337.5315,58.965 C332.6725,53.547 324.825,50.838 313.989,50.838 L313.989,50.838 L270,50.838 L270,141.138 L289.608,141.138 Z M314.247,90.699 L289.608,90.699 L289.608,69.414 L314.247,69.414 C317.859,69.414 320.4605,70.4245 322.0515,72.4455 C323.6425,74.4665 324.438,76.982 324.438,79.992 C324.438,87.13 321.041,90.699 314.247,90.699 L314.247,90.699 Z M374.687151,142.686 C385.179151,142.686 393.736151,138.687 400.358151,130.689 L400.358151,130.689 L389.522151,119.853 C385.652151,124.497 380.707151,126.819 374.687151,126.819 C370.989151,126.819 367.936151,125.8085 365.528151,123.7875 C363.120151,121.7665 361.830151,118.692 361.658151,114.564 L361.658151,114.564 L403.841151,114.564 C404.185151,112.328 404.357151,109.103 404.357151,104.889 C404.357151,94.741 401.605151,87.001 396.101151,81.669 C390.597151,76.337 383.459151,73.671 374.687151,73.671 C365.055151,73.671 357.422651,76.767 351.789651,82.959 C346.156651,89.151 343.340151,97.536 343.340151,108.114 C343.340151,118.95 346.135151,127.421 351.725151,133.527 C357.315151,139.633 364.969151,142.686 374.687151,142.686 Z M386.426151,100.503 L361.787151,100.503 C362.217151,97.063 363.507151,94.3755 365.657151,92.4405 C367.807151,90.5055 370.559151,89.538 373.913151,89.538 C381.309151,89.538 385.480151,93.193 386.426151,100.503 L386.426151,100.503 Z M430.999302,142.686 C437.965302,142.686 443.426302,140.536 447.382302,136.236 L447.382302,136.236 L447.382302,141.138 L465.958302,141.138 L465.958302,99.471 C465.958302,82.271 456.627302,73.671 437.965302,73.671 C427.215302,73.671 417.798302,76.423 409.714302,81.927 L409.714302,81.927 L415.519302,96.246 C422.485302,91.602 429.537302,89.28 436.675302,89.28 C440.029302,89.28 442.652302,90.0755 444.544302,91.6665 C446.436302,93.2575 447.382302,95.558 447.382302,98.568 L447.382302,98.568 L447.382302,102.18 C443.942302,100.632 439.126302,99.858 432.934302,99.858 C425.796302,99.858 419.561302,101.6855 414.229302,105.3405 C408.897302,108.9955 406.231302,114.22 406.231302,121.014 C406.231302,127.98 408.531802,133.3335 413.132802,137.0745 C417.733802,140.8155 423.689302,142.686 430.999302,142.686 Z M434.611302,126.948 C427.903302,126.948 424.549302,125.013 424.549302,121.143 C424.549302,116.929 428.419302,114.822 436.159302,114.822 C440.201302,114.822 443.942302,115.338 447.382302,116.37 L447.382302,116.37 L447.382302,122.304 C443.512302,125.4 439.255302,126.948 434.611302,126.948 Z M501.888453,142.686 C516.852453,142.686 526.527453,135.247 530.913453,120.369 L530.913453,120.369 L512.982453,115.209 C511.004453,121.573 507.306453,124.755 501.888453,124.755 C498.448453,124.755 495.610453,123.2285 493.374453,120.1755 C491.138453,117.1225 490.020453,113.145 490.020453,108.243 C490.020453,103.341 491.159953,99.342 493.438953,96.246 C495.717953,93.15 498.620453,91.602 502.146453,91.602 C507.220453,91.602 510.832453,94.44 512.982453,100.116 L512.982453,100.116 L530.784453,94.311 C526.484453,80.551 516.852453,73.671 501.888453,73.671 C492.600453,73.671 485.139953,76.7885 479.506953,83.0235 C473.873953,89.2585 471.057453,97.665 471.057453,108.243 C471.057453,118.993 473.852453,127.421 479.442453,133.527 C485.032453,139.633 492.514453,142.686 501.888453,142.686 Z M556.781604,142.686 C562.715604,142.686 567.703604,141.697 571.745604,139.719 L571.745604,139.719 L573.809604,123.981 C570.025604,125.701 566.241604,126.561 562.457604,126.561 C561.425604,126.561 560.544104,126.2385 559.813104,125.5935 C559.082104,124.9485 558.716604,124.024 558.716604,122.82 L558.716604,122.82 L558.716604,91.602 L573.035604,91.602 L573.035604,75.219 L558.716604,75.219 L558.716604,48 L540.140604,56.901 L540.140604,75.219 L531.110604,75.219 L531.110604,91.602 L540.140604,91.602 L540.140604,124.626 C540.140604,136.666 545.687604,142.686 556.781604,142.686 Z M645.153906,141.138 L645.153906,69.672 L671.082906,69.672 L671.082906,50.838 L599.616906,50.838 L599.616906,69.672 L625.545906,69.672 L625.545906,141.138 L645.153906,141.138 Z M687.276057,142.686 C694.242057,142.686 699.703057,140.536 703.659057,136.236 L703.659057,136.236 L703.659057,141.138 L722.235057,141.138 L722.235057,99.471 C722.235057,82.271 712.904057,73.671 694.242057,73.671 C683.492057,73.671 674.075057,76.423 665.991057,81.927 L665.991057,81.927 L671.796057,96.246 C678.762057,91.602 685.814057,89.28 692.952057,89.28 C696.306057,89.28 698.929057,90.0755 700.821057,91.6665 C702.713057,93.2575 703.659057,95.558 703.659057,98.568 L703.659057,98.568 L703.659057,102.18 C700.219057,100.632 695.403057,99.858 689.211057,99.858 C682.073057,99.858 675.838057,101.6855 670.506057,105.3405 C665.174057,108.9955 662.508057,114.22 662.508057,121.014 C662.508057,127.98 664.808557,133.3335 669.409557,137.0745 C674.010557,140.8155 679.966057,142.686 687.276057,142.686 Z M690.888057,126.948 C684.180057,126.948 680.826057,125.013 680.826057,121.143 C680.826057,116.929 684.696057,114.822 692.436057,114.822 C696.478057,114.822 700.219057,115.338 703.659057,116.37 L703.659057,116.37 L703.659057,122.304 C699.789057,125.4 695.532057,126.948 690.888057,126.948 Z M761.390208,142.686 C770.162208,142.686 777.085208,139.676 782.159208,133.656 C787.233208,127.636 789.770208,119.122 789.770208,108.114 C789.770208,97.708 787.190208,89.366 782.030208,83.088 C776.870208,76.81 770.334208,73.671 762.422208,73.671 C756.660208,73.671 752.274208,75.778 749.264208,79.992 L749.264208,79.992 L749.264208,48 L730.559208,56.385 L730.559208,141.138 L749.264208,141.138 L749.264208,136.107 C751.844208,140.493 755.886208,142.686 761.390208,142.686 Z M759.326208,124.626 C754.768208,124.626 751.414208,123.25 749.264208,120.498 L749.264208,120.498 L749.264208,95.988 C751.586208,93.15 754.940208,91.731 759.326208,91.731 C763.110208,91.731 766.012708,93.15 768.033708,95.988 C770.054708,98.826 771.065208,102.868 771.065208,108.114 C771.065208,113.274 770.054708,117.316 768.033708,120.24 C766.012708,123.164 763.110208,124.626 759.326208,124.626 Z M815.509358,141.138 L815.509358,48 L796.804358,56.772 L796.804358,141.138 L815.509358,141.138 Z M853.890509,142.686 C864.382509,142.686 872.939509,138.687 879.561509,130.689 L879.561509,130.689 L868.725509,119.853 C864.855509,124.497 859.910509,126.819 853.890509,126.819 C850.192509,126.819 847.139509,125.8085 844.731509,123.7875 C842.323509,121.7665 841.033509,118.692 840.861509,114.564 L840.861509,114.564 L883.044509,114.564 C883.388509,112.328 883.560509,109.103 883.560509,104.889 C883.560509,94.741 880.808509,87.001 875.304509,81.669 C869.800509,76.337 862.662509,73.671 853.890509,73.671 C844.258509,73.671 836.626009,76.767 830.993009,82.959 C825.360009,89.151 822.543509,97.536 822.543509,108.114 C822.543509,118.95 825.338509,127.421 830.928509,133.527 C836.518509,139.633 844.172509,142.686 853.890509,142.686 Z M865.629509,100.503 L840.990509,100.503 C841.420509,97.063 842.710509,94.3755 844.860509,92.4405 C847.010509,90.5055 849.762509,89.538 853.116509,89.538 C860.512509,89.538 864.683509,93.193 865.629509,100.503 L865.629509,100.503 Z" id="ReactTable" fill="#002C4B" fill-rule="nonzero"></path>
            <g id="Group" transform="translate(37.000000, 10.000000)">
                <path d="M39.7239712,51.3436237 C36.631224,36.362877 35.9675112,24.8727722 37.9666331,16.5293551 C39.1555965,11.5671678 41.3293088,7.51908462 44.6346064,4.59846305 C48.1241394,1.51504777 52.5360327,0.00201216606 57.493257,0.00201216606 C65.6712013,0.00201216606 74.2682602,3.72732143 83.4557246,10.8044264 C87.2031203,13.6910458 91.0924366,17.170411 95.1316515,21.2444746 C95.4531404,20.8310265 95.8165416,20.4410453 96.2214301,20.0806152 C107.64098,9.91497158 117.255245,3.59892716 125.478408,1.16365068 C130.367899,-0.284364005 134.958526,-0.422317978 139.138936,0.983031021 C143.551631,2.46646844 147.06766,5.53294888 149.548314,9.82810912 C153.642288,16.9166735 154.721918,26.2310983 153.195595,37.7320243 C152.573451,42.4199112 151.50985,47.5263831 150.007094,53.0593153 C150.574045,53.1277086 151.142416,53.2532808 151.705041,53.4395297 C166.193932,58.2358678 176.453582,63.3937462 182.665021,69.2882839 C186.360669,72.7953831 188.773972,76.6998434 189.646365,81.0218204 C190.567176,85.5836746 189.669313,90.1593316 187.191548,94.4512967 C183.105211,101.529614 175.591643,107.11221 164.887587,111.534031 C160.589552,113.309539 155.726579,114.917559 150.293259,116.363748 C150.541176,116.92292 150.733521,117.516759 150.862138,118.139758 C153.954886,133.120505 154.618598,144.61061 152.619477,152.954027 C151.430513,157.916214 149.256801,161.964297 145.951503,164.884919 C142.46197,167.968334 138.050077,169.48137 133.092853,169.48137 C124.914908,169.48137 116.31785,165.756061 107.130385,158.678956 C103.343104,155.761613 99.4108655,152.238839 95.3254337,148.108619 C94.9050753,148.765474 94.3889681,149.376011 93.7785699,149.919385 C82.3590198,160.085028 72.744755,166.401073 64.5215915,168.836349 C59.6321009,170.284364 55.0414736,170.422318 50.8610636,169.016969 C46.4483686,167.533532 42.9323404,164.467051 40.4516862,160.171891 C36.3577116,153.083327 35.2780823,143.768902 36.8044053,132.267976 C37.449038,127.410634 38.56762,122.103898 40.1575891,116.339009 C39.5361041,116.276104 38.9120754,116.144816 38.2949591,115.940529 C23.8060684,111.144191 13.5464184,105.986312 7.33497892,100.091775 C3.63933121,96.5846754 1.22602752,92.6802151 0.353635235,88.3582381 C-0.567176333,83.7963839 0.330686581,79.2207269 2.80845236,74.9287618 C6.89478863,67.8504443 14.4083565,62.2678481 25.1124133,57.8460273 C29.5385143,56.0176154 34.5637208,54.366822 40.1939394,52.8874674 C39.9933393,52.3969171 39.8349374,51.8811235 39.7239712,51.3436237 Z" id="Path" fill="#002C4B" fill-rule="nonzero" transform="translate(95.000000, 85.000000) scale(-1, 1) translate(-95.000000, -85.000000) "></path>
                <path d="M91.735,110 L91.735,116 L80.6322051,116 C78.8411286,116 77.1868614,115.041975 76.2954489,113.488483 L74.294,110 L91.735,110 Z M116.181,110 L114.180256,113.488483 C113.288844,115.041975 111.634576,116 109.8435,116 L98.735,116 L98.735,110 L116.181,110 Z M91.735,96 L91.735,103 L70.277,103 L66.26,96 L91.735,96 Z M124.215,96 L120.198,103 L98.735,103 L98.735,96 L124.215,96 Z M91.735,82 L91.735,89 L62.244,89 L61.6632438,87.9884826 C60.7789187,86.4473417 60.7789187,84.5526583 61.6632438,83.0115174 L62.243,82 L91.735,82 Z M128.232,82 L128.812461,83.0115174 C129.696786,84.5526583 129.696786,86.4473417 128.812461,87.9884826 L128.231,89 L98.735,89 L98.735,82 L128.232,82 Z M91.735,68 L91.735,75 L66.26,75 L70.277,68 L91.735,68 Z M120.198,68 L124.215,75 L98.735,75 L98.735,68 L120.198,68 Z M91.735,55 L91.735,61 L74.293,61 L76.2954489,57.5115174 C77.1868614,55.958025 78.8411286,55 80.6322051,55 L91.735,55 Z M109.8435,55 C111.634576,55 113.288844,55.958025 114.180256,57.5115174 L116.182,61 L98.735,61 L98.735,55 L109.8435,55 Z" id="Polygon-2" fill="#FFD94C"></path>
                <path d="M54.8601729,98.3577578 C56.1715224,97.6082856 57.8360246,98.0746014 58.5779424,99.3993034 L58.5779424,99.3993034 L59.0525843,100.24352 C62.8563392,106.982993 66.8190116,113.380176 70.9406016,119.435068 C75.8078808,126.585427 81.28184,133.82411 87.3624792,141.151115 C88.3168778,142.30114 88.1849437,144.011176 87.065686,144.997937 L87.065686,144.997937 L86.4542085,145.534625 C66.3465389,163.103314 53.2778188,166.612552 47.2480482,156.062341 C41.3500652,145.742717 43.4844915,126.982888 53.6513274,99.7828526 C53.876818,99.1795821 54.3045861,98.675291 54.8601729,98.3577578 Z M140.534177,119.041504 C141.986131,118.785177 143.375496,119.742138 143.65963,121.194242 L143.65963,121.194242 L143.812815,121.986376 C148.782365,147.995459 145.283348,161 133.315764,161 C121.609745,161 106.708724,149.909007 88.6127018,127.727022 C88.2113495,127.235047 87.9945723,126.617371 88,125.981509 C88.013158,124.480686 89.2357854,123.274651 90.730918,123.287756 L90.730918,123.287756 L91.6846544,123.294531 C99.3056979,123.335994 106.714387,123.071591 113.910723,122.501323 C122.409039,121.82788 131.283523,120.674607 140.534177,119.041504 Z M147.408726,63.8119663 C147.932139,62.4026903 149.508386,61.6634537 150.954581,62.149012 L150.954581,62.149012 L151.742552,62.4154854 C177.583763,71.217922 187.402356,80.8916805 181.198332,91.4367609 C175.129904,101.751366 157.484347,109.260339 128.26166,113.963678 C127.613529,114.067994 126.948643,113.945969 126.382735,113.618843 C125.047025,112.846729 124.602046,111.158214 125.388848,109.847438 L125.388848,109.847438 L125.889328,109.0105 C129.877183,102.31633 133.481358,95.6542621 136.701854,89.0242957 C140.50501,81.1948179 144.073967,72.7907081 147.408726,63.8119663 Z M61.7383398,56.0363218 C62.3864708,55.9320063 63.0513565,56.0540315 63.6172646,56.3811573 C64.9529754,57.153271 65.3979538,58.8417862 64.6111517,60.1525615 L64.6111517,60.1525615 L64.1106718,60.9895001 C60.1228168,67.6836699 56.5186416,74.3457379 53.2981462,80.9757043 C49.49499,88.8051821 45.9260328,97.2092919 42.5912744,106.188034 C42.0678608,107.59731 40.4916142,108.336546 39.045419,107.850988 L39.045419,107.850988 L38.2574475,107.584515 C12.4162372,98.782078 2.59764398,89.1083195 8.80166786,78.5632391 C14.8700957,68.2486335 32.515653,60.7396611 61.7383398,56.0363218 Z M103.545792,24.4653746 C123.653461,6.89668641 136.722181,3.38744778 142.751952,13.9376587 C148.649935,24.2572826 146.515508,43.0171122 136.348673,70.2171474 C136.123182,70.8204179 135.695414,71.324709 135.139827,71.6422422 C133.828478,72.3917144 132.163975,71.9253986 131.422058,70.6006966 L131.422058,70.6006966 L130.947416,69.7564798 C127.143661,63.0170065 123.180988,56.6198239 119.059398,50.564932 C114.192119,43.4145727 108.71816,36.1758903 102.637521,28.8488847 C101.683122,27.6988602 101.815056,25.9888243 102.934314,25.0020629 L102.934314,25.0020629 Z M57.6842361,8 C69.3902551,8 84.2912758,19.0909926 102.387298,41.2729777 C102.788651,41.7649527 103.005428,42.3826288 103,43.0184911 C102.986842,44.5193144 101.764215,45.7253489 100.269082,45.7122445 L100.269082,45.7122445 L99.3153456,45.7054689 C91.6943021,45.6640063 84.2856126,45.9284091 77.0892772,46.4986773 C68.5909612,47.17212 59.7164767,48.325393 50.4658235,49.9584962 C49.0138691,50.2148231 47.6245044,49.2578618 47.3403697,47.805758 L47.3403697,47.805758 L47.1871846,47.0136235 C42.2176347,21.0045412 45.7166519,8 57.6842361,8 Z" id="Combined-Shape" fill="#FF4154"></path>
            </g>
        </g>
    </g>
</svg>